<?xml version="1.0" encoding="UTF-8"?>
<svg width="200" height="200" viewBox="0 0 200 200" fill="none" xmlns="http://www.w3.org/2000/svg">
  <circle cx="100" cy="100" r="90" fill="#F3F4F6"/>
  <circle cx="100" cy="100" r="80" stroke="#9CA3AF" stroke-width="2"/>
  <path d="M100 40C77.909 40 60 57.909 60 80C60 102.091 77.909 120 100 120C122.091 120 140 102.091 140 80C140 57.909 122.091 40 100 40ZM100 110C83.431 110 70 96.569 70 80C70 63.431 83.431 50 100 50C116.569 50 130 63.431 130 80C130 96.569 116.569 110 100 110Z" fill="#9CA3AF"/>
  <path d="M100 130C66.863 130 40 156.863 40 190V200H160V190C160 156.863 133.137 130 100 130ZM140 180H60V190C60 167.909 77.909 150 100 150C122.091 150 140 167.909 140 190V180Z" fill="#9CA3AF"/>
</svg> 